# xmcd CD database file
#
# Track frame offsets:
#	150
#	14685
#	29541
#	48798
#	62703
#	82967
#	97681
#	113800
#	138597
#	162676
#	174144
#	185013
#	197805
#	209647
#	236706
#	254974
#	271174
#	281784
#	292069
#	309101
#
# Disc length: 4384 seconds
#
# Revision: 0
# Processed by: cddbd v1.5.2PL0 Copyright (c) Steve Scherf et al.
# Submitted via: CDex 1.70beta2
#
DISCID=2e111e14
DTITLE=Benny Carter - Jimmy Mundy - Gerard Wilson - They All Had Rhythm - 1945-46
DYEAR=2002
DGENRE=Jazz
TTITLE0=Solo Flight
TTITLE1=Rythm Was All I Had
TTITLE2=Fiesta in Blue
TTITLE3=Skymaster
TTITLE4=Stepin Fetchit
TTITLE5=Queer Street
TTITLE6=Louise
TTITLE7=Stardust
TTITLE8=Out of this World
TTITLE9=Sunday
TTITLE10=Habanera
TTITLE11=Early Boyd
TTITLE12=Fish Fry
TTITLE13=Just you, just me
TTITLE14=Malibu
TTITLE15=I surrender dear
TTITLE16=Tea for Two
TTITLE17=Mr Co Ed
TTITLE18=Frim Fram Sauce
TTITLE19=Polishin' Brass
EXTD=YEAR: 2002
EXTT0=
EXTT1=
EXTT2=
EXTT3=
EXTT4=
EXTT5=
EXTT6=
EXTT7=
EXTT8=
EXTT9=
EXTT10=
EXTT11=
EXTT12=
EXTT13=
EXTT14=
EXTT15=
EXTT16=
EXTT17=
EXTT18=
EXTT19=
PLAYORDER=
